<?xml version="1.0" encoding="UTF-8"?>
<!DOCTYPE svg PUBLIC "-//W3C//DTD SVG 1.1//EN" "http://www.w3.org/Graphics/SVG/1.1/DTD/svg11.dtd">
<svg xmlns="http://www.w3.org/2000/svg" version="1.1" width="800px" height="350px" style="shape-rendering:geometricPrecision; text-rendering:geometricPrecision; image-rendering:optimizeQuality; fill-rule:evenodd; clip-rule:evenodd" xmlns:xlink="http://www.w3.org/1999/xlink">
<g><path style="opacity:0.867" fill="#505151" d="M 69.5,42.5 C 76.2554,41.6681 82.5887,42.8348 88.5,46C 134.032,89.2001 179.865,132.033 226,174.5C 226.667,178.167 226.667,181.833 226,185.5C 179.199,228.633 132.699,272.133 86.5,316C 64.0859,318.866 48.5859,309.699 40,288.5C 32.0382,265.969 36.2049,246.136 52.5,229C 59.3926,224.147 67.0593,221.48 75.5,221C 89.7086,207.289 104.042,193.789 118.5,180.5C 104.345,166.512 90.0118,152.679 75.5,139C 53.8429,134.007 41.0096,120.507 37,98.5C 33.8029,80.0991 38.6362,64.2657 51.5,51C 57.2079,47.3101 63.2079,44.4768 69.5,42.5 Z"/></g>
<g><path style="opacity:1" fill="#214daa" d="M 68.5,50.5 C 73.0824,51.955 77.749,53.1216 82.5,54C 83.6457,56.5572 82.6457,57.8905 79.5,58C 80.8333,58.3333 82.1667,58.6667 83.5,59C 77.139,58.6641 70.8057,57.8308 64.5,56.5C 62.4352,56.4828 60.4352,56.1495 58.5,55.5C 61.2466,52.7933 64.5799,51.1266 68.5,50.5 Z"/></g>
<g><path style="opacity:1" fill="#2439ab" d="M 104.5,71.5 C 99.8479,72.7624 95.1812,72.7624 90.5,71.5C 88.5368,70.1798 86.5368,68.8465 84.5,67.5C 83.4264,66.1154 82.0931,64.9487 80.5,64C 74.9553,61.7249 69.6219,59.2249 64.5,56.5C 70.8057,57.8308 77.139,58.6641 83.5,59C 82.1667,58.6667 80.8333,58.3333 79.5,58C 82.6457,57.8905 83.6457,56.5572 82.5,54C 77.749,53.1216 73.0824,51.955 68.5,50.5C 73.4917,47.6837 78.4917,47.8504 83.5,51C 90.3952,58.0633 97.3952,64.8967 104.5,71.5 Z"/></g>
<g><path style="opacity:1" fill="#2511ba" d="M 84.5,67.5 C 86.5368,68.8465 88.5368,70.1798 90.5,71.5C 95.6754,73.3447 98.0087,77.0114 97.5,82.5C 93.4862,82.6655 89.4862,82.4988 85.5,82C 79.8863,79.685 74.053,78.185 68,77.5C 64.4588,78.8661 60.7922,79.8661 57,80.5C 54.0926,78.1918 53.7593,75.5251 56,72.5C 57.5578,70.6411 59.3911,69.1411 61.5,68C 69.1425,68.5432 76.8092,68.3766 84.5,67.5 Z"/></g>
<g><path style="opacity:1" fill="#2511a6" d="M 58.5,55.5 C 60.4352,56.1495 62.4352,56.4828 64.5,56.5C 69.6219,59.2249 74.9553,61.7249 80.5,64C 82.0931,64.9487 83.4264,66.1154 84.5,67.5C 76.8092,68.3766 69.1425,68.5432 61.5,68C 59.3911,69.1411 57.5578,70.6411 56,72.5C 53.7593,75.5251 54.0926,78.1918 57,80.5C 60.7922,79.8661 64.4588,78.8661 68,77.5C 74.053,78.185 79.8863,79.685 85.5,82C 89.4862,82.4988 93.4862,82.6655 97.5,82.5C 98.0087,77.0114 95.6754,73.3447 90.5,71.5C 95.1812,72.7624 99.8479,72.7624 104.5,71.5C 107.859,74.5285 111.192,77.5285 114.5,80.5C 108.959,84.902 102.626,86.902 95.5,86.5C 94.5,86.5 93.5,86.5 92.5,86.5C 87.0741,85.3119 81.5741,83.9785 76,82.5C 73.1789,82.4078 70.6789,83.0744 68.5,84.5C 67.8333,84.5 67.1667,84.5 66.5,84.5C 61.5,84.5 56.5,84.5 51.5,84.5C 50.8333,84.5 50.1667,84.5 49.5,84.5C 47.5,83.5 45.5,82.5 43.5,81.5C 44.4174,70.3145 49.4174,61.6479 58.5,55.5 Z"/></g>
<g><path style="opacity:1" fill="#2268aa" d="M 92.5,86.5 C 84.2992,86.4833 76.2992,85.8167 68.5,84.5C 70.6789,83.0744 73.1789,82.4078 76,82.5C 81.5741,83.9785 87.0741,85.3119 92.5,86.5 Z"/></g>
<g><path style="opacity:1" fill="#24f1a6" d="M 43.5,81.5 C 45.5,82.5 47.5,83.5 49.5,84.5C 47.0846,85.3052 44.7513,86.3052 42.5,87.5C 42.2053,85.2646 42.5386,83.2646 43.5,81.5 Z"/></g>
<g><path style="opacity:1" fill="#2293a9" d="M 49.5,84.5 C 50.1667,84.5 50.8333,84.5 51.5,84.5C 56.5161,87.0076 61.5161,87.0076 66.5,84.5C 67.1667,84.5 67.8333,84.5 68.5,84.5C 76.2992,85.8167 84.2992,86.4833 92.5,86.5C 93.5,86.5 94.5,86.5 95.5,86.5C 97.5,89.8333 99.5,93.1667 101.5,96.5C 95.3223,97.3165 89.1557,96.9831 83,95.5C 76.8226,96.1891 70.6559,96.8557 64.5,97.5C 63.2644,95.1725 61.2644,94.0058 58.5,94C 55.1119,93.3412 51.7786,93.5078 48.5,94.5C 46.5,93.5 44.5,92.5 42.5,91.5C 42.5,90.1667 42.5,88.8333 42.5,87.5C 44.7513,86.3052 47.0846,85.3052 49.5,84.5 Z"/></g>
<g><path style="opacity:1" fill="#23eaaa" d="M 51.5,84.5 C 56.5,84.5 61.5,84.5 66.5,84.5C 61.5161,87.0076 56.5161,87.0076 51.5,84.5 Z"/></g>
<g><path style="opacity:1" fill="#1f94de" d="M 64.5,97.5 C 64.9583,101.917 63.2917,105.25 59.5,107.5C 55.8099,106.806 52.1432,105.972 48.5,105C 44.7135,101.589 44.7135,98.089 48.5,94.5C 51.7786,93.5078 55.1119,93.3412 58.5,94C 61.2644,94.0058 63.2644,95.1725 64.5,97.5 Z"/></g>
<g><path style="opacity:1" fill="#25dd9c" d="M 114.5,80.5 C 123.8,88.1326 132.467,96.466 140.5,105.5C 140.291,106.922 139.791,108.255 139,109.5C 133.855,113.971 128.688,118.304 123.5,122.5C 123.167,122.5 122.833,122.5 122.5,122.5C 120.525,118.441 117.525,116.774 113.5,117.5C 112.471,112.391 110.971,107.391 109,102.5C 106.914,99.9061 104.414,97.9061 101.5,96.5C 99.5,93.1667 97.5,89.8333 95.5,86.5C 102.626,86.902 108.959,84.902 114.5,80.5 Z"/></g>
<g><path style="opacity:1" fill="#22989d" d="M 42.5,91.5 C 44.5,92.5 46.5,93.5 48.5,94.5C 44.7135,98.089 44.7135,101.589 48.5,105C 52.1432,105.972 55.8099,106.806 59.5,107.5C 63.2917,105.25 64.9583,101.917 64.5,97.5C 70.6559,96.8557 76.8226,96.1891 83,95.5C 89.1557,96.9831 95.3223,97.3165 101.5,96.5C 104.414,97.9061 106.914,99.9061 109,102.5C 110.971,107.391 112.471,112.391 113.5,117.5C 106.536,118.553 99.5361,118.72 92.5,118C 82.2746,110.588 70.9413,108.088 58.5,110.5C 54.0945,110.168 50.0945,108.835 46.5,106.5C 44.1682,101.874 42.8348,96.8742 42.5,91.5 Z"/></g>
<g><path style="opacity:1" fill="#23e59f" d="M 87.5,102.5 C 89.1992,102.34 90.8659,102.506 92.5,103C 93.8333,104.333 93.8333,105.667 92.5,107C 90.6494,107.837 88.8161,108.671 87,109.5C 83.8966,107.008 84.0632,104.674 87.5,102.5 Z"/></g>
<g><path style="opacity:1" fill="#23a09b" d="M 122.5,122.5 C 116.428,126.144 113.428,124.477 113.5,117.5C 117.525,116.774 120.525,118.441 122.5,122.5 Z"/></g>
<g><path style="opacity:0.916" fill="#505150" d="M 330.5,116.5 C 346.17,116.333 361.837,116.5 377.5,117C 380.094,118.339 381.594,120.506 382,123.5C 382.333,151.5 382.667,179.5 383,207.5C 384.473,209.007 386.307,209.674 388.5,209.5C 393.12,208.512 397.787,207.845 402.5,207.5C 405.58,207.32 408.413,207.986 411,209.5C 413.241,218.013 413.908,226.68 413,235.5C 412.626,236.416 412.126,237.25 411.5,238C 399.156,242.052 386.489,243.386 373.5,242C 358.887,239.72 350.72,231.22 349,216.5C 348.5,193.836 348.333,171.169 348.5,148.5C 342.491,148.666 336.491,148.499 330.5,148C 329.584,147.626 328.75,147.126 328,146.5C 326.393,137.936 326.06,129.27 327,120.5C 327.69,118.65 328.856,117.316 330.5,116.5 Z"/></g>
<g><path style="opacity:1" fill="#21a59b" d="M 140.5,105.5 C 142.749,106.08 144.415,107.413 145.5,109.5C 144.872,112.09 143.705,114.423 142,116.5C 138.042,120.537 133.876,124.204 129.5,127.5C 129.167,127.5 128.833,127.5 128.5,127.5C 127.027,125.605 125.36,123.939 123.5,122.5C 128.688,118.304 133.855,113.971 139,109.5C 139.791,108.255 140.291,106.922 140.5,105.5 Z"/></g>
<g><path style="opacity:1" fill="#21e994" d="M 46.5,106.5 C 50.0945,108.835 54.0945,110.168 58.5,110.5C 70.9413,108.088 82.2746,110.588 92.5,118C 99.5361,118.72 106.536,118.553 113.5,117.5C 113.428,124.477 116.428,126.144 122.5,122.5C 122.833,122.5 123.167,122.5 123.5,122.5C 125.36,123.939 127.027,125.605 128.5,127.5C 126.5,128.833 124.5,130.167 122.5,131.5C 119.557,131.353 116.724,130.687 114,129.5C 113.5,129.667 113,129.833 112.5,130C 113.328,130.915 114.328,131.581 115.5,132C 107.04,132.31 98.7067,131.31 90.5,129C 88.3965,127.307 86.8965,125.14 86,122.5C 82.8333,120 79.6667,117.5 76.5,115C 72.8333,114.333 69.1667,114.333 65.5,115C 62.6276,117.377 59.6276,119.544 56.5,121.5C 51.6056,117.594 48.2723,112.594 46.5,106.5 Z"/></g>
<g><path style="opacity:0.912" fill="#505151" d="M 250.5,122.5 C 266.503,122.333 282.503,122.5 298.5,123C 317.818,125.818 327.151,136.984 326.5,156.5C 327.14,163.41 325.807,169.91 322.5,176C 330.875,183.78 334.542,193.447 333.5,205C 334.288,223.858 325.621,235.525 307.5,240C 288.5,240.667 269.5,240.667 250.5,240C 249.584,239.626 248.75,239.126 248,238.5C 246.346,201.251 246.013,163.918 247,126.5C 247.69,124.65 248.856,123.316 250.5,122.5 Z M 279.5,154.5 C 281.857,154.337 284.19,154.503 286.5,155C 292.55,156.729 292.884,159.062 287.5,162C 284.854,162.497 282.187,162.664 279.5,162.5C 279.5,159.833 279.5,157.167 279.5,154.5 Z M 279.5,194.5 C 284.232,194.378 288.898,194.878 293.5,196C 301.657,200.564 301.323,204.564 292.5,208C 288.179,208.499 283.846,208.666 279.5,208.5C 279.5,203.833 279.5,199.167 279.5,194.5 Z"/></g>
<g><path style="opacity:1" fill="#1d90e9" d="M 145.5,109.5 C 152.066,115.278 158.4,121.278 164.5,127.5C 163.733,128.172 163.066,129.005 162.5,130C 158.179,130.499 153.846,130.666 149.5,130.5C 145.864,129.268 142.197,129.268 138.5,130.5C 135.273,130.091 132.273,129.091 129.5,127.5C 133.876,124.204 138.042,120.537 142,116.5C 143.705,114.423 144.872,112.09 145.5,109.5 Z"/></g>
<g><path style="opacity:1" fill="#1d3b95" d="M 375.5,124.5 C 376.219,126.764 376.552,129.097 376.5,131.5C 370.301,130.088 369.968,127.755 375.5,124.5 Z"/></g>
<g><path style="opacity:1" fill="#11c89d" d="M 341.5,122.5 C 342.5,122.5 343.5,122.5 344.5,122.5C 344.995,124.482 345.495,126.482 346,128.5C 348.78,133.062 351.28,137.728 353.5,142.5C 351.5,142.5 349.5,142.5 347.5,142.5C 344.092,136.273 342.092,129.606 341.5,122.5 Z"/></g>
<g><path style="opacity:1" fill="#1459f7" d="M 288.5,128.5 C 292.56,128.485 296.56,128.985 300.5,130C 303.281,130.522 305.615,131.689 307.5,133.5C 307.5,134.833 307.5,136.167 307.5,137.5C 301.728,136.999 296.062,135.166 290.5,132C 289.177,131.184 288.511,130.017 288.5,128.5 Z"/></g>
<g><path style="opacity:1" fill="#1ceae7" d="M 128.5,127.5 C 128.833,127.5 129.167,127.5 129.5,127.5C 132.273,129.091 135.273,130.091 138.5,130.5C 142.197,129.268 145.864,129.268 149.5,130.5C 146.885,134.009 145.885,138.009 146.5,142.5C 141.653,143.067 136.986,144.067 132.5,145.5C 129.557,145.98 126.89,146.98 124.5,148.5C 124.167,148.5 123.833,148.5 123.5,148.5C 121.516,145.511 119.516,142.511 117.5,139.5C 118.366,136.308 120.032,133.641 122.5,131.5C 124.5,130.167 126.5,128.833 128.5,127.5 Z"/></g>
<g><path style="opacity:1" fill="#15daf7" d="M 164.5,127.5 C 170.129,131.461 175.129,136.127 179.5,141.5C 179.167,141.5 178.833,141.5 178.5,141.5C 172.986,140.274 167.486,138.941 162,137.5C 156.682,138.745 151.515,140.412 146.5,142.5C 145.885,138.009 146.885,134.009 149.5,130.5C 153.846,130.666 158.179,130.499 162.5,130C 163.066,129.005 163.733,128.172 164.5,127.5 Z"/></g>
<g><path style="opacity:1" fill="#12d2dc" d="M 341.5,122.5 C 342.092,129.606 344.092,136.273 347.5,142.5C 342.57,142.803 337.737,142.469 333,141.5C 332.333,135.5 332.333,129.5 333,123.5C 335.719,122.556 338.552,122.223 341.5,122.5 Z"/></g>
<g><path style="opacity:1" fill="#1dc6db" d="M 307.5,133.5 C 312.811,135.478 316.478,139.145 318.5,144.5C 315.605,143.601 312.938,142.267 310.5,140.5C 309.833,139.167 308.833,138.167 307.5,137.5C 307.5,136.167 307.5,134.833 307.5,133.5 Z"/></g>
<g><path style="opacity:1" fill="#21ec8a" d="M 122.5,131.5 C 120.032,133.641 118.366,136.308 117.5,139.5C 119.516,142.511 121.516,145.511 123.5,148.5C 121.436,148.687 119.436,149.187 117.5,150C 115.223,151.959 112.723,153.459 110,154.5C 107.178,153.725 104.344,153.058 101.5,152.5C 100.544,143.376 95.5444,137.876 86.5,136C 84.792,133.957 82.792,132.29 80.5,131C 74.3336,130.03 68.3336,128.53 62.5,126.5C 59.9108,125.581 57.9108,123.914 56.5,121.5C 59.6276,119.544 62.6276,117.377 65.5,115C 69.1667,114.333 72.8333,114.333 76.5,115C 79.6667,117.5 82.8333,120 86,122.5C 86.8965,125.14 88.3965,127.307 90.5,129C 98.7067,131.31 107.04,132.31 115.5,132C 114.328,131.581 113.328,130.915 112.5,130C 113,129.833 113.5,129.667 114,129.5C 116.724,130.687 119.557,131.353 122.5,131.5 Z"/></g>
<g><path style="opacity:1" fill="#1df4e5" d="M 258.5,128.5 C 258.511,130.017 259.177,131.184 260.5,132C 265.253,134.458 269.753,137.292 274,140.5C 275.252,143.014 275.752,145.68 275.5,148.5C 273.547,154.074 272.88,160.074 273.5,166.5C 272.167,166.833 270.833,167.167 269.5,167.5C 269.167,167.5 268.833,167.5 268.5,167.5C 266.836,163.671 265.669,159.671 265,155.5C 264.617,154.944 264.117,154.611 263.5,154.5C 263.5,154.167 263.5,153.833 263.5,153.5C 264.117,153.389 264.617,153.056 265,152.5C 267.08,142.098 262.913,138.432 252.5,141.5C 252.334,137.486 252.501,133.486 253,129.5C 254.699,128.594 256.533,128.261 258.5,128.5 Z"/></g>
<g><path style="opacity:1" fill="#13f59b" d="M 344.5,122.5 C 347.5,122.5 350.5,122.5 353.5,122.5C 355.002,126.842 357.169,130.842 360,134.5C 364.202,138.367 368.035,142.533 371.5,147C 364.861,149.775 359.194,148.608 354.5,143.5C 354.5,142.833 354.167,142.5 353.5,142.5C 351.28,137.728 348.78,133.062 346,128.5C 345.495,126.482 344.995,124.482 344.5,122.5 Z"/></g>
<g><path style="opacity:1" fill="#1ae5ea" d="M 258.5,128.5 C 264.5,128.5 270.5,128.5 276.5,128.5C 280.211,131.778 284.378,134.445 289,136.5C 289.781,137.729 290.281,139.062 290.5,140.5C 289.731,143.115 289.397,145.781 289.5,148.5C 284.833,148.5 280.167,148.5 275.5,148.5C 275.752,145.68 275.252,143.014 274,140.5C 269.753,137.292 265.253,134.458 260.5,132C 259.177,131.184 258.511,130.017 258.5,128.5 Z"/></g>
<g><path style="opacity:1" fill="#19ca92" d="M 353.5,122.5 C 360.508,122.334 367.508,122.5 374.5,123C 375.056,123.383 375.389,123.883 375.5,124.5C 369.968,127.755 370.301,130.088 376.5,131.5C 376.5,138.167 376.5,144.833 376.5,151.5C 370.314,151.549 364.314,152.549 358.5,154.5C 357.407,152.651 356.074,150.984 354.5,149.5C 354.5,147.5 354.5,145.5 354.5,143.5C 359.194,148.608 364.861,149.775 371.5,147C 368.035,142.533 364.202,138.367 360,134.5C 357.169,130.842 355.002,126.842 353.5,122.5 Z"/></g>
<g><path style="opacity:1" fill="#1f93e4" d="M 252.5,141.5 C 262.913,138.432 267.08,142.098 265,152.5C 264.617,153.056 264.117,153.389 263.5,153.5C 260.365,150.099 256.698,147.433 252.5,145.5C 252.5,144.167 252.5,142.833 252.5,141.5 Z"/></g>
<g><path style="opacity:1" fill="#1fe8fb" d="M 62.5,126.5 C 68.3336,128.53 74.3336,130.03 80.5,131C 82.792,132.29 84.792,133.957 86.5,136C 95.5444,137.876 100.544,143.376 101.5,152.5C 101.167,152.5 100.833,152.5 100.5,152.5C 93.4028,146.907 86.7361,140.74 80.5,134C 76.1448,132.794 71.8115,131.461 67.5,130C 65.4156,129.303 63.7489,128.136 62.5,126.5 Z"/></g>
<g><path style="opacity:1" fill="#209a99" d="M 252.5,145.5 C 256.698,147.433 260.365,150.099 263.5,153.5C 263.5,153.833 263.5,154.167 263.5,154.5C 260.014,156.106 256.347,157.106 252.5,157.5C 252.5,153.5 252.5,149.5 252.5,145.5 Z"/></g>
<g><path style="opacity:1" fill="#171be9" d="M 178.5,141.5 C 177.659,143.379 177.325,145.379 177.5,147.5C 172.787,146.82 168.12,146.82 163.5,147.5C 165.226,149.439 166.893,151.273 168.5,153C 165.89,153.224 163.39,152.724 161,151.5C 161.349,160.024 165.516,165.857 173.5,169C 178.063,170.475 182.73,171.308 187.5,171.5C 188.763,165.952 188.763,160.618 187.5,155.5C 188.852,154.476 190.185,153.476 191.5,152.5C 195.192,155.862 198.859,159.195 202.5,162.5C 203.548,166.264 204.881,169.931 206.5,173.5C 203.538,172.939 200.705,171.939 198,170.5C 193.877,172.956 189.544,174.956 185,176.5C 180.8,175.828 176.633,174.994 172.5,174C 168.049,171.217 163.883,168.05 160,164.5C 157.879,159.471 155.379,154.638 152.5,150C 151.5,149.333 150.5,149.333 149.5,150C 147.29,151.509 145.457,153.342 144,155.5C 143.02,154.019 141.853,152.685 140.5,151.5C 140.709,150.914 141.043,150.414 141.5,150C 137.925,149.546 134.925,148.046 132.5,145.5C 136.986,144.067 141.653,143.067 146.5,142.5C 151.515,140.412 156.682,138.745 162,137.5C 167.486,138.941 172.986,140.274 178.5,141.5 Z"/></g>
<g><path style="opacity:0.907" fill="#505151" d="M 442.5,146.5 C 450.84,146.334 459.173,146.5 467.5,147C 483.412,150.579 492.912,160.413 496,176.5C 499.864,155.299 512.53,145.299 534,146.5C 539.631,146.315 545.131,146.982 550.5,148.5C 558.785,147.364 567.118,147.197 575.5,148C 577.333,148.5 578.5,149.667 579,151.5C 579.333,161.167 579.667,170.833 580,180.5C 582.752,157.574 595.585,146.241 618.5,146.5C 623.981,146.281 629.315,146.948 634.5,148.5C 642.785,147.364 651.118,147.197 659.5,148C 661.333,148.5 662.5,149.667 663,151.5C 663.333,171.5 663.667,191.5 664,211.5C 668.865,209.161 674.032,208.161 679.5,208.5C 679.5,198.833 679.5,189.167 679.5,179.5C 676.15,179.665 672.817,179.498 669.5,179C 667.667,178.5 666.5,177.333 666,175.5C 665.333,167.5 665.333,159.5 666,151.5C 666.374,150.584 666.874,149.75 667.5,149C 674.064,147.871 680.731,147.371 687.5,147.5C 694.357,147.547 701.19,147.88 708,148.5C 744.103,138.947 760.103,152.614 756,189.5C 755.167,190.333 754.333,191.167 753.5,192C 744.5,192.667 735.5,192.667 726.5,192C 723.746,188.395 722.413,184.229 722.5,179.5C 720.097,179.393 718.264,180.393 717,182.5C 715.803,185.089 714.803,187.756 714,190.5C 713.501,196.491 713.334,202.491 713.5,208.5C 719.274,208.267 724.774,209.267 730,211.5C 731.107,215.888 731.607,220.388 731.5,225C 731.333,228.833 731.167,232.667 731,236.5C 730.626,237.416 730.126,238.25 729.5,239C 718.76,240.145 707.927,240.645 697,240.5C 686.833,240.333 676.667,240.167 666.5,240C 665.584,239.626 664.75,239.126 664,238.5C 662.301,249.741 657.135,258.908 648.5,266C 642.601,269.522 636.268,271.855 629.5,273C 616.187,274.307 602.854,274.64 589.5,274C 587.667,273.5 586.5,272.333 586,270.5C 585.28,265.02 584.78,259.52 584.5,254C 583.026,247.599 585.359,243.599 591.5,242C 595.833,241.667 600.167,241.333 604.5,241C 589.469,235.473 581.302,224.64 580,208.5C 579.667,218.5 579.333,228.5 579,238.5C 576.167,258.667 564.667,270.167 544.5,273C 531.187,274.307 517.854,274.64 504.5,274C 502.951,272.786 501.785,271.286 501,269.5C 500.333,261.833 500.333,254.167 501,246.5C 502.109,244.185 503.943,242.685 506.5,242C 511.167,241.667 515.833,241.333 520.5,241C 506.181,236.343 498.015,226.509 496,211.5C 492.267,229.233 481.433,239.4 463.5,242C 435.857,246.119 419.357,234.619 414,207.5C 412.869,195.702 413.535,184.035 416,172.5C 420.087,158.912 428.92,150.246 442.5,146.5 Z M 535.5,178.5 C 538.785,178.269 541.285,179.603 543,182.5C 546.333,190.5 546.333,198.5 543,206.5C 539.333,210.5 535.667,210.5 532,206.5C 526.754,196.319 527.921,186.986 535.5,178.5 Z M 619.5,178.5 C 622.652,177.959 625.152,178.959 627,181.5C 631.082,189.334 631.416,197.334 628,205.5C 621.03,212.177 616.363,210.51 614,200.5C 612.128,192.153 613.961,184.82 619.5,178.5 Z M 453.5,179.5 C 456.325,179.081 458.491,180.081 460,182.5C 462.886,189.362 463.22,196.362 461,203.5C 458.513,209.126 455.18,209.792 451,205.5C 446.276,196.291 447.109,187.625 453.5,179.5 Z"/></g>
<g><path style="opacity:1" fill="#1425f6" d="M 276.5,128.5 C 280.5,128.5 284.5,128.5 288.5,128.5C 288.511,130.017 289.177,131.184 290.5,132C 296.062,135.166 301.728,136.999 307.5,137.5C 308.833,138.167 309.833,139.167 310.5,140.5C 308.849,145.324 308.183,150.324 308.5,155.5C 305.139,157.511 301.806,159.511 298.5,161.5C 299.039,154.707 296.039,150.374 289.5,148.5C 289.397,145.781 289.731,143.115 290.5,140.5C 290.281,139.062 289.781,137.729 289,136.5C 284.378,134.445 280.211,131.778 276.5,128.5 Z"/></g>
<g><path style="opacity:0.958" fill="#505150" d="M 275.5,148.5 C 280.167,148.5 284.833,148.5 289.5,148.5C 296.039,150.374 299.039,154.707 298.5,161.5C 294.567,167.21 289.067,169.543 282,168.5C 278.748,168.481 275.915,167.814 273.5,166.5C 272.88,160.074 273.547,154.074 275.5,148.5 Z M 279.5,154.5 C 279.5,157.167 279.5,159.833 279.5,162.5C 282.187,162.664 284.854,162.497 287.5,162C 292.884,159.062 292.55,156.729 286.5,155C 284.19,154.503 281.857,154.337 279.5,154.5 Z"/></g>
<g><path style="opacity:1" fill="#210f90" d="M 123.5,148.5 C 123.833,148.5 124.167,148.5 124.5,148.5C 127.463,152.074 130.963,155.074 135,157.5C 141.596,167.702 148.429,177.702 155.5,187.5C 153.716,187.893 152.05,188.559 150.5,189.5C 141.989,180.484 133.989,170.984 126.5,161C 124.487,159.743 122.321,158.909 120,158.5C 116.81,159.218 113.977,160.551 111.5,162.5C 107.209,159.877 103.543,156.544 100.5,152.5C 100.833,152.5 101.167,152.5 101.5,152.5C 104.344,153.058 107.178,153.725 110,154.5C 112.723,153.459 115.223,151.959 117.5,150C 119.436,149.187 121.436,148.687 123.5,148.5 Z"/></g>
<g><path style="opacity:1" fill="#1234e4" d="M 178.5,141.5 C 178.833,141.5 179.167,141.5 179.5,141.5C 183.921,144.71 187.921,148.377 191.5,152.5C 190.185,153.476 188.852,154.476 187.5,155.5C 188.763,160.618 188.763,165.952 187.5,171.5C 182.73,171.308 178.063,170.475 173.5,169C 165.516,165.857 161.349,160.024 161,151.5C 163.39,152.724 165.89,153.224 168.5,153C 166.893,151.273 165.226,149.439 163.5,147.5C 168.12,146.82 172.787,146.82 177.5,147.5C 177.325,145.379 177.659,143.379 178.5,141.5 Z"/></g>
<g><path style="opacity:1" fill="#1bf4f8" d="M 657.5,164.5 C 651.889,163.436 646.222,162.603 640.5,162C 638.676,161.34 637.343,160.173 636.5,158.5C 637.234,157.122 637.901,155.622 638.5,154C 644.5,153.333 650.5,153.333 656.5,154C 657.456,157.394 657.789,160.894 657.5,164.5 Z"/></g>
<g><path style="opacity:1" fill="#1cecec" d="M 679.5,153.5 C 676.869,155.153 674.203,156.819 671.5,158.5C 671.286,156.856 671.62,155.356 672.5,154C 674.81,153.503 677.143,153.337 679.5,153.5 Z"/></g>
<g><path style="opacity:1" fill="#23edf1" d="M 630.5,154.5 C 621.674,157.363 612.674,159.696 603.5,161.5C 601.302,161.125 599.302,160.458 597.5,159.5C 600.701,156.063 604.701,153.896 609.5,153C 615.5,152.333 621.5,152.333 627.5,153C 628.737,153.232 629.737,153.732 630.5,154.5 Z"/></g>
<g><path style="opacity:1" fill="#0f2ed2" d="M 310.5,140.5 C 312.938,142.267 315.605,143.601 318.5,144.5C 320.639,151.101 320.972,157.768 319.5,164.5C 316.315,164.02 313.481,164.686 311,166.5C 309.055,165.137 306.888,164.303 304.5,164C 305.563,162.812 306.897,162.312 308.5,162.5C 308.5,160.167 308.5,157.833 308.5,155.5C 308.183,150.324 308.849,145.324 310.5,140.5 Z"/></g>
<g><path style="opacity:1" fill="#1fe6f8" d="M 472.5,155.5 C 472.167,159.167 470.167,161.167 466.5,161.5C 463.605,160.221 460.605,159.221 457.5,158.5C 454.898,158.467 452.898,159.467 451.5,161.5C 451.167,161.5 450.833,161.5 450.5,161.5C 444.159,163.449 438.159,162.782 432.5,159.5C 436.214,156.31 440.547,154.143 445.5,153C 454.756,151.792 463.756,152.625 472.5,155.5 Z"/></g>
<g><path style="opacity:1" fill="#1deef4" d="M 536.5,152.5 C 534.511,155.806 532.511,159.139 530.5,162.5C 530.167,162.5 529.833,162.5 529.5,162.5C 523.365,162.823 517.365,162.156 511.5,160.5C 518.434,154.006 526.767,151.34 536.5,152.5 Z"/></g>
<g><path style="opacity:1" fill="#21ed95" d="M 263.5,154.5 C 264.117,154.611 264.617,154.944 265,155.5C 265.669,159.671 266.836,163.671 268.5,167.5C 265.673,168.419 263.34,170.086 261.5,172.5C 257.977,171.315 254.977,169.315 252.5,166.5C 252.5,163.5 252.5,160.5 252.5,157.5C 256.347,157.106 260.014,156.106 263.5,154.5 Z"/></g>
<g><path style="opacity:1" fill="#21f592" d="M 536.5,152.5 C 538.95,152.298 541.283,152.631 543.5,153.5C 541.183,157.146 538.516,160.48 535.5,163.5C 533.708,163.634 532.042,163.301 530.5,162.5C 532.511,159.139 534.511,155.806 536.5,152.5 Z"/></g>
<g><path style="opacity:1" fill="#1bf3f7" d="M 737.5,154.5 C 735.761,159.117 733.094,163.284 729.5,167C 720.398,168.778 714.065,165.278 710.5,156.5C 712.221,154.306 714.555,153.139 717.5,153C 723.167,152.333 728.833,152.333 734.5,153C 735.737,153.232 736.737,153.732 737.5,154.5 Z"/></g>
<g><path style="opacity:1" fill="#20e888" d="M 466.5,161.5 C 466.5,161.833 466.5,162.167 466.5,162.5C 461.527,161.836 456.527,161.503 451.5,161.5C 452.898,159.467 454.898,158.467 457.5,158.5C 460.605,159.221 463.605,160.221 466.5,161.5 Z"/></g>
<g><path style="opacity:1" fill="#1d7be3" d="M 692.5,162.5 C 684.847,162.824 677.847,165.158 671.5,169.5C 671.5,168.167 671.5,166.833 671.5,165.5C 676.405,161.693 682.072,159.526 688.5,159C 690.054,157.108 691.888,155.608 694,154.5C 695.5,154.667 696.333,155.5 696.5,157C 695.35,158.981 694.016,160.814 692.5,162.5 Z"/></g>
<g><path style="opacity:1" fill="#14cfe4" d="M 376.5,151.5 C 376.5,157.167 376.5,162.833 376.5,168.5C 375.5,168.5 374.5,168.5 373.5,168.5C 368.641,165.83 364.141,162.497 360,158.5C 359.209,157.255 358.709,155.922 358.5,154.5C 364.314,152.549 370.314,151.549 376.5,151.5 Z"/></g>
<g><path style="opacity:1" fill="#1e65e4" d="M 692.5,162.5 C 692.5,166.493 691.5,170.159 689.5,173.5C 688.167,174.167 686.833,174.833 685.5,175.5C 681.614,173.725 677.28,172.892 672.5,173C 671.663,171.989 671.33,170.822 671.5,169.5C 677.847,165.158 684.847,162.824 692.5,162.5 Z"/></g>
<g><path style="opacity:1" fill="#1130e0" d="M 354.5,149.5 C 356.074,150.984 357.407,152.651 358.5,154.5C 358.709,155.922 359.209,157.255 360,158.5C 364.141,162.497 368.641,165.83 373.5,168.5C 373.031,172.837 370.865,174.504 367,173.5C 366.316,175.479 366.816,177.146 368.5,178.5C 368.113,179.72 367.28,180.387 366,180.5C 361.919,178.877 358.086,176.877 354.5,174.5C 354.5,166.167 354.5,157.833 354.5,149.5 Z"/></g>
<g><path style="opacity:1" fill="#210892" d="M 529.5,162.5 C 529.833,162.5 530.167,162.5 530.5,162.5C 532.042,163.301 533.708,163.634 535.5,163.5C 533.874,166.246 533.207,169.246 533.5,172.5C 531.668,173.248 530.001,174.248 528.5,175.5C 527.126,171.162 527.459,166.829 529.5,162.5 Z"/></g>
<g><path style="opacity:1" fill="#28798e" d="M 543.5,153.5 C 547.281,153.974 550.448,155.641 553,158.5C 553.273,156.899 553.773,155.399 554.5,154C 560.749,153.191 566.916,153.358 573,154.5C 573.5,165.161 573.667,175.828 573.5,186.5C 570.302,187.68 567.135,189.014 564,190.5C 561.293,189.795 559.126,188.295 557.5,186C 558.022,185.439 558.355,184.772 558.5,184C 557.044,180.6 556.044,177.1 555.5,173.5C 551.833,173.5 548.167,173.5 544.5,173.5C 540.922,171.682 537.255,171.348 533.5,172.5C 533.207,169.246 533.874,166.246 535.5,163.5C 538.516,160.48 541.183,157.146 543.5,153.5 Z"/></g>
<g><path style="opacity:1" fill="#210b8c" d="M 597.5,159.5 C 599.302,160.458 601.302,161.125 603.5,161.5C 605.479,164.146 607.812,166.479 610.5,168.5C 612.038,170.243 613.038,172.243 613.5,174.5C 611.768,177.21 610.101,179.876 608.5,182.5C 606.572,176.745 602.572,173.245 596.5,172C 594.266,170.362 592.933,168.195 592.5,165.5C 593.419,162.911 595.086,160.911 597.5,159.5 Z"/></g>
<g><path style="opacity:1" fill="#22158f" d="M 268.5,167.5 C 268.833,167.5 269.167,167.5 269.5,167.5C 271.704,175.581 275.704,182.581 281.5,188.5C 278.833,188.5 276.167,188.5 273.5,188.5C 272.488,187.128 271.488,185.795 270.5,184.5C 269.032,179.363 266.032,175.363 261.5,172.5C 263.34,170.086 265.673,168.419 268.5,167.5 Z"/></g>
<g><path style="opacity:1" fill="#1e15f1" d="M 472.5,155.5 C 484.093,162.002 490.093,172.002 490.5,185.5C 485.006,183.881 479.339,183.048 473.5,183C 471.737,179.064 468.737,176.897 464.5,176.5C 453.997,170.075 446.663,172.742 442.5,184.5C 435.254,183.536 427.92,183.203 420.5,183.5C 420.902,173.584 424.902,165.584 432.5,159.5C 438.159,162.782 444.159,163.449 450.5,161.5C 444.406,169.193 446.406,172.026 456.5,170C 460.508,168.188 463.841,165.688 466.5,162.5C 466.5,162.167 466.5,161.833 466.5,161.5C 470.167,161.167 472.167,159.167 472.5,155.5 Z"/></g>
<g><path style="opacity:1" fill="#200c8b" d="M 450.5,161.5 C 450.833,161.5 451.167,161.5 451.5,161.5C 456.527,161.503 461.527,161.836 466.5,162.5C 463.841,165.688 460.508,168.188 456.5,170C 446.406,172.026 444.406,169.193 450.5,161.5 Z"/></g>
<g><path style="opacity:1" fill="#1d13f3" d="M 630.5,154.5 C 632.5,155.833 634.5,157.167 636.5,158.5C 637.343,160.173 638.676,161.34 640.5,162C 646.222,162.603 651.889,163.436 657.5,164.5C 657.5,171.167 657.5,177.833 657.5,184.5C 650.466,186.009 643.466,187.675 636.5,189.5C 635.944,183.554 633.611,178.387 629.5,174C 624.05,170.658 618.717,170.824 613.5,174.5C 613.038,172.243 612.038,170.243 610.5,168.5C 607.812,166.479 605.479,164.146 603.5,161.5C 612.674,159.696 621.674,157.363 630.5,154.5 Z"/></g>
<g><path style="opacity:0.926" fill="#505150" d="M 544.5,173.5 C 550.834,180.183 553.167,188.183 551.5,197.5C 552.062,206.05 548.728,212.383 541.5,216.5C 538.391,216.736 535.391,216.403 532.5,215.5C 530.228,214.559 528.228,213.226 526.5,211.5C 524.588,207.68 523.255,203.68 522.5,199.5C 522.5,198.167 522.5,196.833 522.5,195.5C 522.34,188.131 524.34,181.464 528.5,175.5C 530.001,174.248 531.668,173.248 533.5,172.5C 537.255,171.348 540.922,171.682 544.5,173.5 Z M 535.5,178.5 C 527.921,186.986 526.754,196.319 532,206.5C 535.667,210.5 539.333,210.5 543,206.5C 546.333,198.5 546.333,190.5 543,182.5C 541.285,179.603 538.785,178.269 535.5,178.5 Z"/></g>
<g><path style="opacity:0.924" fill="#505150" d="M 636.5,189.5 C 636.5,191.5 636.5,193.5 636.5,195.5C 636.5,197.167 636.5,198.833 636.5,200.5C 635.632,203.449 634.632,206.449 633.5,209.5C 629.405,215.865 623.738,217.865 616.5,215.5C 611.151,212.459 608.151,207.792 607.5,201.5C 606.949,196.313 606.949,190.98 607.5,185.5C 608.404,184.791 608.737,183.791 608.5,182.5C 610.101,179.876 611.768,177.21 613.5,174.5C 618.717,170.824 624.05,170.658 629.5,174C 633.611,178.387 635.944,183.554 636.5,189.5 Z M 619.5,178.5 C 613.961,184.82 612.128,192.153 614,200.5C 616.363,210.51 621.03,212.177 628,205.5C 631.416,197.334 631.082,189.334 627,181.5C 625.152,178.959 622.652,177.959 619.5,178.5 Z"/></g>
<g><path style="opacity:1" fill="#1a11eb" d="M 679.5,153.5 C 687.174,153.334 694.841,153.5 702.5,154C 704.121,156.166 704.955,158.666 705,161.5C 706.076,158.921 707.909,157.254 710.5,156.5C 714.065,165.278 720.398,168.778 729.5,167C 733.094,163.284 735.761,159.117 737.5,154.5C 745.331,157.793 749.498,163.793 750,172.5C 750.499,177.155 750.666,181.821 750.5,186.5C 743.5,186.5 736.5,186.5 729.5,186.5C 729.786,181.468 728.452,176.968 725.5,173C 717.467,171.194 712.134,174.361 709.5,182.5C 706.788,181.013 704.621,181.679 703,184.5C 703.319,182.257 703.152,180.09 702.5,178C 700.167,176.333 697.833,174.667 695.5,173C 693.402,172.322 691.402,172.489 689.5,173.5C 691.5,170.159 692.5,166.493 692.5,162.5C 694.016,160.814 695.35,158.981 696.5,157C 696.333,155.5 695.5,154.667 694,154.5C 691.888,155.608 690.054,157.108 688.5,159C 682.072,159.526 676.405,161.693 671.5,165.5C 671.5,163.167 671.5,160.833 671.5,158.5C 674.203,156.819 676.869,155.153 679.5,153.5 Z"/></g>
<g><path style="opacity:0.92" fill="#505150" d="M 464.5,176.5 C 467.76,182.375 469.427,188.708 469.5,195.5C 469.036,201.225 467.369,206.558 464.5,211.5C 458.042,217.09 451.875,216.757 446,210.5C 441.612,202.293 440.445,193.626 442.5,184.5C 446.663,172.742 453.997,170.075 464.5,176.5 Z M 453.5,179.5 C 447.109,187.625 446.276,196.291 451,205.5C 455.18,209.792 458.513,209.126 461,203.5C 463.22,196.362 462.886,189.362 460,182.5C 458.491,180.081 456.325,179.081 453.5,179.5 Z"/></g>
<g><path style="opacity:1" fill="#1c10f5" d="M 132.5,145.5 C 134.925,148.046 137.925,149.546 141.5,150C 141.043,150.414 140.709,150.914 140.5,151.5C 141.853,152.685 143.02,154.019 144,155.5C 145.457,153.342 147.29,151.509 149.5,150C 150.5,149.333 151.5,149.333 152.5,150C 155.379,154.638 157.879,159.471 160,164.5C 163.883,168.05 168.049,171.217 172.5,174C 176.633,174.994 180.8,175.828 185,176.5C 189.544,174.956 193.877,172.956 198,170.5C 200.705,171.939 203.538,172.939 206.5,173.5C 207.593,175.349 208.926,177.016 210.5,178.5C 210.5,178.833 210.5,179.167 210.5,179.5C 203.072,182.046 196.405,185.879 190.5,191C 187.568,191.953 184.568,192.453 181.5,192.5C 176.933,193.967 172.267,194.467 167.5,194C 163.606,191.554 159.606,189.388 155.5,187.5C 148.429,177.702 141.596,167.702 135,157.5C 130.963,155.074 127.463,152.074 124.5,148.5C 126.89,146.98 129.557,145.98 132.5,145.5 Z"/></g>
<g><path style="opacity:1" fill="#266696" d="M 150.5,189.5 C 150.5,189.833 150.5,190.167 150.5,190.5C 148.99,191.836 147.323,193.003 145.5,194C 145.833,194.333 146.167,194.667 146.5,195C 145.167,195 143.833,195 142.5,195C 143.833,196.333 145.167,197.667 146.5,199C 145.892,199.87 145.059,200.37 144,200.5C 140.843,198.683 137.677,196.85 134.5,195C 125.877,192.696 118.711,194.863 113,201.5C 111.571,201.53 110.071,201.197 108.5,200.5C 114.996,193.171 121.996,186.338 129.5,180C 122.996,174.663 116.996,168.829 111.5,162.5C 113.977,160.551 116.81,159.218 120,158.5C 122.321,158.909 124.487,159.743 126.5,161C 133.989,170.984 141.989,180.484 150.5,189.5 Z"/></g>
<g><path style="opacity:1" fill="#1df1ee" d="M 202.5,162.5 C 207.526,167.195 212.526,171.861 217.5,176.5C 215.167,177.167 212.833,177.833 210.5,178.5C 208.926,177.016 207.593,175.349 206.5,173.5C 204.881,169.931 203.548,166.264 202.5,162.5 Z"/></g>
<g><path style="opacity:1" fill="#21f48c" d="M 217.5,176.5 C 219.262,177.262 220.262,178.596 220.5,180.5C 217.994,181.75 215.327,182.416 212.5,182.5C 211.599,181.71 210.932,180.71 210.5,179.5C 210.5,179.167 210.5,178.833 210.5,178.5C 212.833,177.833 215.167,177.167 217.5,176.5 Z"/></g>
<g><path style="opacity:1" fill="#246a87" d="M 592.5,165.5 C 592.933,168.195 594.266,170.362 596.5,172C 602.572,173.245 606.572,176.745 608.5,182.5C 608.737,183.791 608.404,184.791 607.5,185.5C 603.282,183.319 598.782,181.986 594,181.5C 591.335,181.668 588.835,182.335 586.5,183.5C 586.738,176.786 588.738,170.786 592.5,165.5 Z"/></g>
<g><path style="opacity:1" fill="#171bec" d="M 373.5,168.5 C 374.5,168.5 375.5,168.5 376.5,168.5C 376.5,180.167 376.5,191.833 376.5,203.5C 375.167,203.167 373.833,202.833 372.5,202.5C 372.966,200.799 372.966,199.299 372.5,198C 370.207,196.305 367.873,195.638 365.5,196C 370.58,191.931 369.913,189.765 363.5,189.5C 362.479,190.901 361.479,192.235 360.5,193.5C 358.5,192.5 356.5,191.5 354.5,190.5C 354.5,185.167 354.5,179.833 354.5,174.5C 358.086,176.877 361.919,178.877 366,180.5C 367.28,180.387 368.113,179.72 368.5,178.5C 366.816,177.146 366.316,175.479 367,173.5C 370.865,174.504 373.031,172.837 373.5,168.5 Z"/></g>
<g><path style="opacity:1" fill="#1a27f1" d="M 308.5,155.5 C 308.5,157.833 308.5,160.167 308.5,162.5C 306.897,162.312 305.563,162.812 304.5,164C 306.888,164.303 309.055,165.137 311,166.5C 313.481,164.686 316.315,164.02 319.5,164.5C 318.246,170.496 314.913,174.996 309.5,178C 312.174,178.67 314.507,179.837 316.5,181.5C 315.009,181.901 313.342,182.068 311.5,182C 307.488,185.338 303.155,188.172 298.5,190.5C 292.953,188.978 287.286,188.312 281.5,188.5C 275.704,182.581 271.704,175.581 269.5,167.5C 270.833,167.167 272.167,166.833 273.5,166.5C 275.915,167.814 278.748,168.481 282,168.5C 289.067,169.543 294.567,167.21 298.5,161.5C 301.806,159.511 305.139,157.511 308.5,155.5 Z"/></g>
<g><path style="opacity:1" fill="#1e2df0" d="M 464.5,176.5 C 468.737,176.897 471.737,179.064 473.5,183C 479.339,183.048 485.006,183.881 490.5,185.5C 492.069,195.066 491.403,204.399 488.5,213.5C 484.763,208.809 482.263,203.476 481,197.5C 477.722,193.218 473.889,192.552 469.5,195.5C 469.427,188.708 467.76,182.375 464.5,176.5 Z"/></g>
<g><path style="opacity:1" fill="#266f8e" d="M 252.5,166.5 C 254.977,169.315 257.977,171.315 261.5,172.5C 266.032,175.363 269.032,179.363 270.5,184.5C 265.263,187.748 261.929,192.414 260.5,198.5C 258.117,200.358 255.45,201.692 252.5,202.5C 252.5,190.5 252.5,178.5 252.5,166.5 Z"/></g>
<g><path style="opacity:1" fill="#220c85" d="M 210.5,179.5 C 210.932,180.71 211.599,181.71 212.5,182.5C 209.149,183.67 205.815,185.17 202.5,187C 199.181,191.167 195.181,194.333 190.5,196.5C 187.314,195.403 184.314,194.07 181.5,192.5C 184.568,192.453 187.568,191.953 190.5,191C 196.405,185.879 203.072,182.046 210.5,179.5 Z"/></g>
<g><path style="opacity:1" fill="#277289" d="M 220.5,180.5 C 212.806,188.196 204.806,195.529 196.5,202.5C 195.135,200.14 193.135,198.473 190.5,197.5C 190.5,197.167 190.5,196.833 190.5,196.5C 195.181,194.333 199.181,191.167 202.5,187C 205.815,185.17 209.149,183.67 212.5,182.5C 215.327,182.416 217.994,181.75 220.5,180.5 Z"/></g>
<g><path style="opacity:0.951" fill="#505151" d="M 273.5,188.5 C 276.167,188.5 278.833,188.5 281.5,188.5C 287.286,188.312 292.953,188.978 298.5,190.5C 306.531,196.271 307.531,203.105 301.5,211C 299.725,212.439 297.725,213.439 295.5,214C 290.037,213.913 284.87,214.746 280,216.5C 277.913,215.603 275.746,214.936 273.5,214.5C 273.5,205.833 273.5,197.167 273.5,188.5 Z M 279.5,194.5 C 279.5,199.167 279.5,203.833 279.5,208.5C 283.846,208.666 288.179,208.499 292.5,208C 301.323,204.564 301.657,200.564 293.5,196C 288.898,194.878 284.232,194.378 279.5,194.5 Z"/></g>
<g><path style="opacity:1" fill="#28548c" d="M 607.5,185.5 C 606.949,190.98 606.949,196.313 607.5,201.5C 603.313,200.771 599.313,199.438 595.5,197.5C 592.708,201.053 589.708,204.386 586.5,207.5C 585.216,199.371 585.216,191.371 586.5,183.5C 588.835,182.335 591.335,181.668 594,181.5C 598.782,181.986 603.282,183.319 607.5,185.5 Z"/></g>
<g><path style="opacity:1" fill="#22328e" d="M 657.5,184.5 C 657.5,186.833 657.5,189.167 657.5,191.5C 650.779,193.806 643.779,195.139 636.5,195.5C 636.5,193.5 636.5,191.5 636.5,189.5C 643.466,187.675 650.466,186.009 657.5,184.5 Z"/></g>
<g><path style="opacity:1" fill="#1c31ed" d="M 709.5,182.5 C 707.656,191.361 706.99,200.361 707.5,209.5C 701.125,209.815 699.125,207.148 701.5,201.5C 697.526,200.379 693.86,198.546 690.5,196C 688.866,195.506 687.199,195.34 685.5,195.5C 685.5,188.833 685.5,182.167 685.5,175.5C 686.833,174.833 688.167,174.167 689.5,173.5C 691.402,172.489 693.402,172.322 695.5,173C 697.833,174.667 700.167,176.333 702.5,178C 703.152,180.09 703.319,182.257 703,184.5C 704.621,181.679 706.788,181.013 709.5,182.5 Z"/></g>
<g><path style="opacity:1" fill="#1a22f5" d="M 511.5,160.5 C 517.365,162.156 523.365,162.823 529.5,162.5C 527.459,166.829 527.126,171.162 528.5,175.5C 524.34,181.464 522.34,188.131 522.5,195.5C 521.357,195.092 520.357,194.425 519.5,193.5C 521.298,190.711 521.798,187.711 521,184.5C 516.198,189.136 512.364,194.469 509.5,200.5C 509.833,201.167 510.167,201.833 510.5,202.5C 507.872,205.243 504.872,205.909 501.5,204.5C 501.147,195.109 501.647,185.775 503,176.5C 504.032,170.098 506.865,164.765 511.5,160.5 Z"/></g>
<g><path style="opacity:1" fill="#2c5390" d="M 544.5,173.5 C 548.167,173.5 551.833,173.5 555.5,173.5C 556.044,177.1 557.044,180.6 558.5,184C 558.355,184.772 558.022,185.439 557.5,186C 559.126,188.295 561.293,189.795 564,190.5C 567.135,189.014 570.302,187.68 573.5,186.5C 573.5,200.5 573.5,214.5 573.5,228.5C 571.697,224.051 570.197,219.385 569,214.5C 566.636,211.31 564.136,208.31 561.5,205.5C 559.599,203.204 557.266,201.371 554.5,200C 554.957,199.586 555.291,199.086 555.5,198.5C 554.311,197.571 552.978,197.238 551.5,197.5C 553.167,188.183 550.834,180.183 544.5,173.5 Z"/></g>
<g><path style="opacity:1" fill="#1675eb" d="M 354.5,190.5 C 356.5,191.5 358.5,192.5 360.5,193.5C 359.089,195.914 357.089,197.581 354.5,198.5C 354.5,195.833 354.5,193.167 354.5,190.5 Z"/></g>
<g><path style="opacity:1" fill="#21318b" d="M 155.5,187.5 C 159.606,189.388 163.606,191.554 167.5,194C 172.267,194.467 176.933,193.967 181.5,192.5C 184.314,194.07 187.314,195.403 190.5,196.5C 190.5,196.833 190.5,197.167 190.5,197.5C 183.411,198.355 176.411,199.689 169.5,201.5C 166.774,201.318 164.107,200.818 161.5,200C 158.669,197.999 156.003,195.833 153.5,193.5C 152.833,192.167 151.833,191.167 150.5,190.5C 150.5,190.167 150.5,189.833 150.5,189.5C 152.05,188.559 153.716,187.893 155.5,187.5 Z"/></g>
<g><path style="opacity:1" fill="#26468d" d="M 657.5,191.5 C 657.5,195.833 657.5,200.167 657.5,204.5C 654.427,203.267 654.094,201.767 656.5,200C 655.299,199.097 654.465,197.931 654,196.5C 650.833,197.667 650.667,199.167 653.5,201C 651.983,202.685 650.316,204.185 648.5,205.5C 646.308,204.141 644.641,202.308 643.5,200C 641.071,199.297 638.738,199.463 636.5,200.5C 636.5,198.833 636.5,197.167 636.5,195.5C 643.779,195.139 650.779,193.806 657.5,191.5 Z"/></g>
<g><path style="opacity:1" fill="#255688" d="M 270.5,184.5 C 271.488,185.795 272.488,187.128 273.5,188.5C 273.5,197.167 273.5,205.833 273.5,214.5C 272.778,214.082 272.278,213.416 272,212.5C 271.601,212.728 271.435,213.062 271.5,213.5C 271.167,213.5 270.833,213.5 270.5,213.5C 261.921,211.747 258.921,215.08 261.5,223.5C 261.5,223.833 261.5,224.167 261.5,224.5C 260.391,224.557 259.391,224.89 258.5,225.5C 258.318,223.409 258.652,221.409 259.5,219.5C 256.283,215.693 256.283,212.193 259.5,209C 259.041,207.057 260.041,205.724 262.5,205C 261.833,204.667 261.167,204.333 260.5,204C 261.833,203 261.833,202 260.5,201C 262.842,199.608 262.842,198.775 260.5,198.5C 261.929,192.414 265.263,187.748 270.5,184.5 Z"/></g>
<g><path style="opacity:1" fill="#1942f5" d="M 372.5,202.5 C 372.768,205.74 373.434,208.906 374.5,212C 374.167,212.5 373.833,213 373.5,213.5C 367.579,212.05 362.913,208.883 359.5,204C 357.922,202.906 356.255,202.072 354.5,201.5C 354.5,200.5 354.5,199.5 354.5,198.5C 357.089,197.581 359.089,195.914 360.5,193.5C 361.479,192.235 362.479,190.901 363.5,189.5C 369.913,189.765 370.58,191.931 365.5,196C 367.873,195.638 370.207,196.305 372.5,198C 372.966,199.299 372.966,200.799 372.5,202.5 Z"/></g>
<g><path style="opacity:1" fill="#1e37ea" d="M 522.5,195.5 C 522.5,196.833 522.5,198.167 522.5,199.5C 519.313,202.531 516.647,206.031 514.5,210C 511.309,212.426 507.975,214.593 504.5,216.5C 502.87,212.774 501.87,208.774 501.5,204.5C 504.872,205.909 507.872,205.243 510.5,202.5C 510.167,201.833 509.833,201.167 509.5,200.5C 512.364,194.469 516.198,189.136 521,184.5C 521.798,187.711 521.298,190.711 519.5,193.5C 520.357,194.425 521.357,195.092 522.5,195.5 Z"/></g>
<g><path style="opacity:1" fill="#214494" d="M 419.5,187.5 C 423.104,188.66 426.77,188.66 430.5,187.5C 432.481,187.437 434.148,188.104 435.5,189.5C 436.366,197.467 438.7,204.967 442.5,212C 438.587,218.78 439.253,225.114 444.5,231C 447.833,231.667 451.167,231.667 454.5,231C 459.634,228.031 464.634,224.864 469.5,221.5C 468.33,217.827 466.663,214.493 464.5,211.5C 467.369,206.558 469.036,201.225 469.5,195.5C 473.889,192.552 477.722,193.218 481,197.5C 482.263,203.476 484.763,208.809 488.5,213.5C 483.328,229.272 472.328,236.938 455.5,236.5C 434.955,235.453 423.121,224.787 420,204.5C 419.501,198.843 419.334,193.176 419.5,187.5 Z"/></g>
<g><path style="opacity:1" fill="#1d5686" d="M 320.5,184.5 C 327.03,192.629 329.196,201.963 327,212.5C 324.687,223.979 317.853,230.979 306.5,233.5C 308.725,229.765 311.558,226.432 315,223.5C 315.402,222.128 315.902,220.795 316.5,219.5C 314.862,216.696 313.029,214.029 311,211.5C 310.19,201.116 313.357,192.116 320.5,184.5 Z"/></g>
<g><path style="opacity:1" fill="#2c3694" d="M 607.5,201.5 C 608.151,207.792 611.151,212.459 616.5,215.5C 612.806,220.793 611.806,226.459 613.5,232.5C 613.733,234.062 614.4,235.395 615.5,236.5C 598.171,234.504 588.504,224.838 586.5,207.5C 589.708,204.386 592.708,201.053 595.5,197.5C 599.313,199.438 603.313,200.771 607.5,201.5 Z"/></g>
<g><path style="opacity:1" fill="#22478c" d="M 685.5,199.5 C 686.509,203.178 688.343,206.511 691,209.5C 691.972,215.903 690.306,221.569 686,226.5C 683.295,229.036 680.795,231.703 678.5,234.5C 675.482,234.665 672.482,234.498 669.5,234C 668.748,233.329 668.414,232.496 668.5,231.5C 671.789,229.384 674.956,227.051 678,224.5C 678.083,220.981 677.25,217.647 675.5,214.5C 678.833,214.5 682.167,214.5 685.5,214.5C 685.5,209.5 685.5,204.5 685.5,199.5 Z"/></g>
<g><path style="opacity:1" fill="#2c4b98" d="M 150.5,190.5 C 151.833,191.167 152.833,192.167 153.5,193.5C 152.409,196.428 150.409,198.594 147.5,200C 150.997,202.583 154.664,204.916 158.5,207C 166.533,208.519 173.533,211.853 179.5,217C 177.626,218.435 175.626,219.602 173.5,220.5C 170.215,219.972 166.882,219.805 163.5,220C 164.079,218.575 164.079,216.908 163.5,215C 159.705,214.186 156.205,212.686 153,210.5C 150.877,210.966 149.377,212.133 148.5,214C 149.196,215.893 150.03,217.726 151,219.5C 151.796,222.039 151.629,224.372 150.5,226.5C 147.471,230.928 148.138,234.762 152.5,238C 151.216,238.684 150.049,238.517 149,237.5C 147.754,240.913 145.587,243.579 142.5,245.5C 140.951,240.947 137.951,237.614 133.5,235.5C 130.119,229.788 125.119,226.788 118.5,226.5C 117.833,227.167 117.167,227.833 116.5,228.5C 114.271,227.423 111.937,226.756 109.5,226.5C 108.368,225.646 107.035,225.646 105.5,226.5C 108.136,218.062 109.136,209.396 108.5,200.5C 110.071,201.197 111.571,201.53 113,201.5C 118.711,194.863 125.877,192.696 134.5,195C 137.677,196.85 140.843,198.683 144,200.5C 145.059,200.37 145.892,199.87 146.5,199C 145.167,197.667 143.833,196.333 142.5,195C 143.833,195 145.167,195 146.5,195C 146.167,194.667 145.833,194.333 145.5,194C 147.323,193.003 148.99,191.836 150.5,190.5 Z"/></g>
<g><path style="opacity:1" fill="#3066a4" d="M 150.5,226.5 C 148.967,227.431 147.3,228.098 145.5,228.5C 139.41,226.97 133.41,225.137 127.5,223C 125.697,222.363 124.364,221.197 123.5,219.5C 121.941,220.074 120.441,220.74 119,221.5C 118.933,218.689 117.766,216.523 115.5,215C 115.903,212.359 116.903,210.026 118.5,208C 123.176,206.992 127.843,206.325 132.5,206C 137.578,209.955 142.744,213.789 148,217.5C 149.908,220.206 150.741,223.206 150.5,226.5 Z"/></g>
<g><path style="opacity:1" fill="#1959e8" d="M 354.5,201.5 C 356.255,202.072 357.922,202.906 359.5,204C 362.913,208.883 367.579,212.05 373.5,213.5C 373.833,213 374.167,212.5 374.5,212C 373.434,208.906 372.768,205.74 372.5,202.5C 373.833,202.833 375.167,203.167 376.5,203.5C 375.608,212.276 379.608,216.61 388.5,216.5C 392.586,222.032 393.753,228.032 392,234.5C 389.037,232.539 386.371,230.206 384,227.5C 382.49,223.295 380.324,219.462 377.5,216C 376.5,215.5 375.5,215 374.5,214.5C 373.527,216.392 372.86,218.392 372.5,220.5C 373.932,224.013 374.765,227.68 375,231.5C 376.807,236.25 379.14,236.583 382,232.5C 382.49,233.793 382.657,235.127 382.5,236.5C 366.452,236.945 357.285,229.279 355,213.5C 354.501,209.514 354.334,205.514 354.5,201.5 Z"/></g>
<g><path style="opacity:1" fill="#1f48e9" d="M 420.5,183.5 C 427.92,183.203 435.254,183.536 442.5,184.5C 440.445,193.626 441.612,202.293 446,210.5C 451.875,216.757 458.042,217.09 464.5,211.5C 466.663,214.493 468.33,217.827 469.5,221.5C 464.634,224.864 459.634,228.031 454.5,231C 451.167,231.667 447.833,231.667 444.5,231C 439.253,225.114 438.587,218.78 442.5,212C 438.7,204.967 436.366,197.467 435.5,189.5C 434.148,188.104 432.481,187.437 430.5,187.5C 426.77,188.66 423.104,188.66 419.5,187.5C 419.232,185.901 419.566,184.568 420.5,183.5 Z"/></g>
<g><path style="opacity:1" fill="#272691" d="M 526.5,211.5 C 528.228,213.226 530.228,214.559 532.5,215.5C 531.051,217.925 530.385,220.591 530.5,223.5C 531.009,227.867 531.676,232.201 532.5,236.5C 528.779,236.089 525.112,235.422 521.5,234.5C 519.063,225.772 520.73,218.105 526.5,211.5 Z"/></g>
<g><path style="opacity:1" fill="#2928ed" d="M 633.5,209.5 C 639.502,213.336 644.335,218.336 648,224.5C 648.667,225.833 648.667,227.167 648,228.5C 645.63,231.039 643.13,233.372 640.5,235.5C 638.517,229.188 634.517,224.854 628.5,222.5C 627.5,222.833 626.5,223.167 625.5,223.5C 623.699,229.403 619.699,232.403 613.5,232.5C 611.806,226.459 612.806,220.793 616.5,215.5C 623.738,217.865 629.405,215.865 633.5,209.5 Z"/></g>
<g><path style="opacity:1" fill="#254784" d="M 108.5,200.5 C 109.136,209.396 108.136,218.062 105.5,226.5C 102.833,226.5 100.167,226.5 97.5,226.5C 98.4227,222.936 98.756,219.269 98.5,215.5C 96.1667,215.5 93.8333,215.5 91.5,215.5C 96.8641,210.135 102.531,205.135 108.5,200.5 Z"/></g>
<g><path style="opacity:1" fill="#204c93" d="M 399.5,214.5 C 401.56,213.189 403.726,213.189 406,214.5C 406.582,218.824 407.082,223.157 407.5,227.5C 407.493,229.369 407.16,231.036 406.5,232.5C 403.311,228.077 401.811,223.077 402,217.5C 401.623,216.058 400.79,215.058 399.5,214.5 Z"/></g>
<g><path style="opacity:1" fill="#233c94" d="M 522.5,199.5 C 523.255,203.68 524.588,207.68 526.5,211.5C 520.73,218.105 519.063,225.772 521.5,234.5C 513.07,231.071 507.404,225.071 504.5,216.5C 507.975,214.593 511.309,212.426 514.5,210C 516.647,206.031 519.313,202.531 522.5,199.5 Z"/></g>
<g><path style="opacity:1" fill="#3315ba" d="M 561.5,205.5 C 564.136,208.31 566.636,211.31 569,214.5C 570.197,219.385 571.697,224.051 573.5,228.5C 573.504,234.142 572.504,239.475 570.5,244.5C 566.496,243.829 564.163,241.496 563.5,237.5C 561.377,231.004 559.877,224.337 559,217.5C 555.989,215.059 552.489,213.893 548.5,214C 552.194,210.131 556.527,207.298 561.5,205.5 Z"/></g>
<g><path style="opacity:1" fill="#252485" d="M 675.5,214.5 C 677.25,217.647 678.083,220.981 678,224.5C 674.956,227.051 671.789,229.384 668.5,231.5C 668.334,226.489 668.501,221.489 669,216.5C 671.154,215.77 673.321,215.103 675.5,214.5 Z"/></g>
<g><path style="opacity:1" fill="#2656f1" d="M 270.5,213.5 C 268.154,217.508 265.154,220.841 261.5,223.5C 258.921,215.08 261.921,211.747 270.5,213.5 Z"/></g>
<g><path style="opacity:1" fill="#272990" d="M 657.5,204.5 C 657.667,215.505 657.5,226.505 657,237.5C 656.467,240.929 655.633,244.262 654.5,247.5C 647.808,246.182 643.141,242.516 640.5,236.5C 640.5,236.167 640.5,235.833 640.5,235.5C 643.13,233.372 645.63,231.039 648,228.5C 648.667,227.167 648.667,225.833 648,224.5C 644.335,218.336 639.502,213.336 633.5,209.5C 634.632,206.449 635.632,203.449 636.5,200.5C 638.738,199.463 641.071,199.297 643.5,200C 644.641,202.308 646.308,204.141 648.5,205.5C 650.316,204.185 651.983,202.685 653.5,201C 650.667,199.167 650.833,197.667 654,196.5C 654.465,197.931 655.299,199.097 656.5,200C 654.094,201.767 654.427,203.267 657.5,204.5 Z"/></g>
<g><path style="opacity:1" fill="#1e52fa" d="M 316.5,181.5 C 318.23,182.026 319.564,183.026 320.5,184.5C 313.357,192.116 310.19,201.116 311,211.5C 313.029,214.029 314.862,216.696 316.5,219.5C 315.902,220.795 315.402,222.128 315,223.5C 311.558,226.432 308.725,229.765 306.5,233.5C 306.167,233.5 305.833,233.5 305.5,233.5C 305.19,229.454 304.19,225.621 302.5,222C 298.507,221.83 294.507,221.996 290.5,222.5C 292.016,224.199 293.016,226.199 293.5,228.5C 293.246,230.417 292.246,231.751 290.5,232.5C 289.833,232.5 289.167,232.5 288.5,232.5C 282.633,229.481 277.133,225.814 272,221.5C 271.503,218.854 271.336,216.187 271.5,213.5C 271.435,213.062 271.601,212.728 272,212.5C 272.278,213.416 272.778,214.082 273.5,214.5C 275.746,214.936 277.913,215.603 280,216.5C 284.87,214.746 290.037,213.913 295.5,214C 297.725,213.439 299.725,212.439 301.5,211C 307.531,203.105 306.531,196.271 298.5,190.5C 303.155,188.172 307.488,185.338 311.5,182C 313.342,182.068 315.009,181.901 316.5,181.5 Z"/></g>
<g><path style="opacity:1" fill="#205b80" d="M 290.5,222.5 C 287.484,222.159 284.818,220.993 282.5,219C 281.549,218.282 281.383,217.449 282,216.5C 285.656,217.405 288.49,219.405 290.5,222.5 Z"/></g>
<g><path style="opacity:1" fill="#2b3887" d="M 532.5,215.5 C 535.391,216.403 538.391,216.736 541.5,216.5C 541.064,218.746 540.397,220.913 539.5,223C 540.394,225.068 541.06,227.235 541.5,229.5C 540.231,232.105 538.564,234.438 536.5,236.5C 535.167,236.5 533.833,236.5 532.5,236.5C 531.676,232.201 531.009,227.867 530.5,223.5C 530.385,220.591 531.051,217.925 532.5,215.5 Z"/></g>
<g><path style="opacity:1" fill="#2a4992" d="M 260.5,198.5 C 262.842,198.775 262.842,199.608 260.5,201C 261.833,202 261.833,203 260.5,204C 261.167,204.333 261.833,204.667 262.5,205C 260.041,205.724 259.041,207.057 259.5,209C 256.283,212.193 256.283,215.693 259.5,219.5C 258.652,221.409 258.318,223.409 258.5,225.5C 256.5,225.5 254.5,225.5 252.5,225.5C 252.5,217.833 252.5,210.167 252.5,202.5C 255.45,201.692 258.117,200.358 260.5,198.5 Z"/></g>
<g><path style="opacity:1" fill="#215b81" d="M 305.5,233.5 C 301.265,234.436 296.931,234.769 292.5,234.5C 291.833,233.833 291.167,233.167 290.5,232.5C 292.246,231.751 293.246,230.417 293.5,228.5C 293.016,226.199 292.016,224.199 290.5,222.5C 294.507,221.996 298.507,221.83 302.5,222C 304.19,225.621 305.19,229.454 305.5,233.5 Z"/></g>
<g><path style="opacity:1" fill="#1f51f5" d="M 685.5,195.5 C 687.199,195.34 688.866,195.506 690.5,196C 693.86,198.546 697.526,200.379 701.5,201.5C 699.125,207.148 701.125,209.815 707.5,209.5C 707.5,211.167 707.5,212.833 707.5,214.5C 713.221,214.369 718.888,214.869 724.5,216C 722.218,218.397 720.884,221.231 720.5,224.5C 720.5,224.833 720.5,225.167 720.5,225.5C 719.035,226.406 718.035,227.739 717.5,229.5C 718.325,230.386 719.325,230.719 720.5,230.5C 720.567,231.959 720.234,233.292 719.5,234.5C 717.143,234.663 714.81,234.497 712.5,234C 713.672,233.581 714.672,232.915 715.5,232C 713.08,232.025 710.747,232.691 708.5,234C 698.506,234.5 688.506,234.666 678.5,234.5C 680.795,231.703 683.295,229.036 686,226.5C 690.306,221.569 691.972,215.903 691,209.5C 688.343,206.511 686.509,203.178 685.5,199.5C 685.5,198.167 685.5,196.833 685.5,195.5 Z"/></g>
<g><path style="opacity:1" fill="#212282" d="M 725.5,228.5 C 723.883,229.038 722.216,229.371 720.5,229.5C 720.5,228.167 720.5,226.833 720.5,225.5C 720.5,225.167 720.5,224.833 720.5,224.5C 722.371,224.141 723.871,223.141 725,221.5C 725.497,223.81 725.663,226.143 725.5,228.5 Z"/></g>
<g><path style="opacity:1" fill="#2b538a" d="M 153.5,193.5 C 156.003,195.833 158.669,197.999 161.5,200C 164.107,200.818 166.774,201.318 169.5,201.5C 176.411,199.689 183.411,198.355 190.5,197.5C 193.135,198.473 195.135,200.14 196.5,202.5C 179.797,219.537 162.464,235.871 144.5,251.5C 143.27,249.703 142.604,247.703 142.5,245.5C 145.587,243.579 147.754,240.913 149,237.5C 150.049,238.517 151.216,238.684 152.5,238C 148.138,234.762 147.471,230.928 150.5,226.5C 151.629,224.372 151.796,222.039 151,219.5C 150.03,217.726 149.196,215.893 148.5,214C 149.377,212.133 150.877,210.966 153,210.5C 156.205,212.686 159.705,214.186 163.5,215C 164.079,216.908 164.079,218.575 163.5,220C 166.882,219.805 170.215,219.972 173.5,220.5C 175.626,219.602 177.626,218.435 179.5,217C 173.533,211.853 166.533,208.519 158.5,207C 154.664,204.916 150.997,202.583 147.5,200C 150.409,198.594 152.409,196.428 153.5,193.5 Z"/></g>
<g><path style="opacity:1" fill="#2427f5" d="M 270.5,213.5 C 270.833,213.5 271.167,213.5 271.5,213.5C 271.336,216.187 271.503,218.854 272,221.5C 277.133,225.814 282.633,229.481 288.5,232.5C 281.435,232.194 274.435,231.36 267.5,230C 264.977,228.64 262.977,226.807 261.5,224.5C 261.5,224.167 261.5,223.833 261.5,223.5C 265.154,220.841 268.154,217.508 270.5,213.5 Z"/></g>
<g><path style="opacity:1" fill="#2a64eb" d="M 640.5,235.5 C 640.5,235.833 640.5,236.167 640.5,236.5C 638.249,237.695 635.915,238.695 633.5,239.5C 634.928,236.988 635.428,234.322 635,231.5C 629.104,235.249 622.604,236.916 615.5,236.5C 614.4,235.395 613.733,234.062 613.5,232.5C 619.699,232.403 623.699,229.403 625.5,223.5C 626.5,223.167 627.5,222.833 628.5,222.5C 634.517,224.854 638.517,229.188 640.5,235.5 Z"/></g>
<g><path style="opacity:1" fill="#267487" d="M 109.5,226.5 C 108.838,228.47 108.172,230.47 107.5,232.5C 106.311,233.429 104.978,233.762 103.5,233.5C 101.587,238.45 101.253,243.45 102.5,248.5C 99.1667,248.5 95.8333,248.5 92.5,248.5C 93.7977,241.082 95.4644,233.749 97.5,226.5C 100.167,226.5 102.833,226.5 105.5,226.5C 107.035,225.646 108.368,225.646 109.5,226.5 Z"/></g>
<g><path style="opacity:1" fill="#32188c" d="M 551.5,197.5 C 552.978,197.238 554.311,197.571 555.5,198.5C 555.291,199.086 554.957,199.586 554.5,200C 557.266,201.371 559.599,203.204 561.5,205.5C 556.527,207.298 552.194,210.131 548.5,214C 552.489,213.893 555.989,215.059 559,217.5C 559.877,224.337 561.377,231.004 563.5,237.5C 559.559,235.86 555.892,233.694 552.5,231C 549.512,229.48 546.512,229.314 543.5,230.5C 543.5,232.167 543.5,233.833 543.5,235.5C 541.139,235.674 538.806,236.007 536.5,236.5C 538.564,234.438 540.231,232.105 541.5,229.5C 541.06,227.235 540.394,225.068 539.5,223C 540.397,220.913 541.064,218.746 541.5,216.5C 548.728,212.383 552.062,206.05 551.5,197.5 Z"/></g>
<g><path style="opacity:1" fill="#2024fd" d="M 720.5,225.5 C 720.5,226.833 720.5,228.167 720.5,229.5C 722.216,229.371 723.883,229.038 725.5,228.5C 726.5,233.5 724.5,235.5 719.5,234.5C 720.234,233.292 720.567,231.959 720.5,230.5C 719.325,230.719 718.325,230.386 717.5,229.5C 718.035,227.739 719.035,226.406 720.5,225.5 Z"/></g>
<g><path style="opacity:1" fill="#282d8f" d="M 261.5,224.5 C 262.977,226.807 264.977,228.64 267.5,230C 274.435,231.36 281.435,232.194 288.5,232.5C 289.167,232.5 289.833,232.5 290.5,232.5C 291.167,233.167 291.833,233.833 292.5,234.5C 279.496,234.667 266.496,234.5 253.5,234C 252.556,231.281 252.223,228.448 252.5,225.5C 254.5,225.5 256.5,225.5 258.5,225.5C 259.391,224.89 260.391,224.557 261.5,224.5 Z"/></g>
<g><path style="opacity:1" fill="#1c4aee" d="M 388.5,216.5 C 392.076,215.515 395.742,214.848 399.5,214.5C 400.79,215.058 401.623,216.058 402,217.5C 401.811,223.077 403.311,228.077 406.5,232.5C 398.852,235.128 390.852,236.462 382.5,236.5C 382.657,235.127 382.49,233.793 382,232.5C 379.14,236.583 376.807,236.25 375,231.5C 374.765,227.68 373.932,224.013 372.5,220.5C 372.86,218.392 373.527,216.392 374.5,214.5C 375.5,215 376.5,215.5 377.5,216C 380.324,219.462 382.49,223.295 384,227.5C 386.371,230.206 389.037,232.539 392,234.5C 393.753,228.032 392.586,222.032 388.5,216.5 Z"/></g>
<g><path style="opacity:1" fill="#211a8c" d="M 91.5,215.5 C 93.8333,215.5 96.1667,215.5 98.5,215.5C 98.756,219.269 98.4227,222.936 97.5,226.5C 95.4644,233.749 93.7977,241.082 92.5,248.5C 90.8333,248.5 89.1667,248.5 87.5,248.5C 89.5806,240.205 91.5806,231.871 93.5,223.5C 93.032,220.767 92.3653,218.1 91.5,215.5 Z"/></g>
<g><path style="opacity:1" fill="#1a17ef" d="M 91.5,215.5 C 92.3653,218.1 93.032,220.767 93.5,223.5C 91.5806,231.871 89.5806,240.205 87.5,248.5C 80.8503,249.11 74.1836,249.61 67.5,250C 59.7643,254.656 53.7643,260.822 49.5,268.5C 47.2632,270.647 45.2632,272.98 43.5,275.5C 40.1081,255.455 47.1081,240.288 64.5,230C 69.3175,228.131 74.3175,227.131 79.5,227C 83.369,222.963 87.369,219.13 91.5,215.5 Z"/></g>
<g><path style="opacity:1" fill="#333486" d="M 563.5,237.5 C 564.163,241.496 566.496,243.829 570.5,244.5C 568.086,253.251 562.753,259.584 554.5,263.5C 551.866,261.004 549.7,258.004 548,254.5C 547.082,250.72 546.249,247.054 545.5,243.5C 548.978,240.223 550.812,236.223 551,231.5C 548.838,233.496 546.338,234.83 543.5,235.5C 543.5,233.833 543.5,232.167 543.5,230.5C 546.512,229.314 549.512,229.48 552.5,231C 555.892,233.694 559.559,235.86 563.5,237.5 Z"/></g>
<g><path style="opacity:1" fill="#2b6b98" d="M 109.5,226.5 C 111.937,226.756 114.271,227.423 116.5,228.5C 117.167,227.833 117.833,227.167 118.5,226.5C 125.119,226.788 130.119,229.788 133.5,235.5C 132.521,236.765 131.521,238.099 130.5,239.5C 132.16,241.993 134.16,244.16 136.5,246C 133.044,246.18 129.711,246.847 126.5,248C 129.16,249.982 128.66,250.815 125,250.5C 120.377,249.777 116.877,247.444 114.5,243.5C 113.005,244.112 111.338,244.112 109.5,243.5C 108.5,243.833 107.5,244.167 106.5,244.5C 106.833,244.833 107.167,245.167 107.5,245.5C 110.109,246.23 112.776,246.73 115.5,247C 114.627,248.045 113.627,248.878 112.5,249.5C 109.236,248.676 105.902,248.342 102.5,248.5C 101.253,243.45 101.587,238.45 103.5,233.5C 104.978,233.762 106.311,233.429 107.5,232.5C 108.172,230.47 108.838,228.47 109.5,226.5 Z"/></g>
<g><path style="opacity:1" fill="#2a768c" d="M 133.5,235.5 C 137.951,237.614 140.951,240.947 142.5,245.5C 142.604,247.703 143.27,249.703 144.5,251.5C 140.541,255.157 136.541,258.824 132.5,262.5C 131.318,257.15 128.152,253.483 123,251.5C 120.843,256.082 118.01,256.582 114.5,253C 111.424,252.654 108.424,251.988 105.5,251C 108.036,250.814 110.369,250.314 112.5,249.5C 113.627,248.878 114.627,248.045 115.5,247C 112.776,246.73 110.109,246.23 107.5,245.5C 107.167,245.167 106.833,244.833 106.5,244.5C 107.5,244.167 108.5,243.833 109.5,243.5C 111.338,244.112 113.005,244.112 114.5,243.5C 116.877,247.444 120.377,249.777 125,250.5C 128.66,250.815 129.16,249.982 126.5,248C 129.711,246.847 133.044,246.18 136.5,246C 134.16,244.16 132.16,241.993 130.5,239.5C 131.521,238.099 132.521,236.765 133.5,235.5 Z"/></g>
<g><path style="opacity:1" fill="#265799" d="M 521.5,247.5 C 525.833,247.5 530.167,247.5 534.5,247.5C 531.388,254.599 532.055,261.266 536.5,267.5C 532.766,267.323 529.099,267.656 525.5,268.5C 524.84,264.687 523.674,261.021 522,257.5C 521.984,254.059 521.817,250.726 521.5,247.5 Z"/></g>
<g><path style="opacity:1" fill="#274b8b" d="M 640.5,236.5 C 643.141,242.516 647.808,246.182 654.5,247.5C 651.5,255.167 646.167,260.5 638.5,263.5C 637.833,262.167 636.833,261.167 635.5,260.5C 633.534,257.843 630.867,256.177 627.5,255.5C 623.566,256.65 619.566,257.484 615.5,258C 617.839,260.887 618.172,264.054 616.5,267.5C 615.167,267.5 613.833,267.5 612.5,267.5C 613.376,264.201 613.543,260.868 613,257.5C 611.619,259.635 610.619,261.968 610,264.5C 602.542,269.205 597.375,267.205 594.5,258.5C 592.929,255.734 591.929,252.734 591.5,249.5C 592.263,248.732 593.263,248.232 594.5,248C 603.167,247.667 611.833,247.333 620.5,247C 625.994,246.305 630.327,243.805 633.5,239.5C 635.915,238.695 638.249,237.695 640.5,236.5 Z"/></g>
<g><path style="opacity:1" fill="#3137b6" d="M 591.5,249.5 C 591.929,252.734 592.929,255.734 594.5,258.5C 593.3,261.698 593.3,265.031 594.5,268.5C 593.504,268.586 592.671,268.252 592,267.5C 591.5,263 591,258.5 590.5,254C 590.508,252.293 590.842,250.793 591.5,249.5 Z"/></g>
<g><path style="opacity:1" fill="#2a7487" d="M 534.5,247.5 C 534.833,247.5 535.167,247.5 535.5,247.5C 539.103,253.707 542.436,260.04 545.5,266.5C 542.518,266.963 539.518,267.296 536.5,267.5C 532.055,261.266 531.388,254.599 534.5,247.5 Z"/></g>
<g><path style="opacity:1" fill="#257186" d="M 635.5,260.5 C 634.003,261.306 632.336,261.972 630.5,262.5C 629.295,263.577 628.628,264.91 628.5,266.5C 624.566,267.36 620.566,267.693 616.5,267.5C 618.172,264.054 617.839,260.887 615.5,258C 619.566,257.484 623.566,256.65 627.5,255.5C 630.867,256.177 633.534,257.843 635.5,260.5 Z"/></g>
<g><path style="opacity:1" fill="#1ceaea" d="M 87.5,248.5 C 84.0864,258.109 86.753,265.276 95.5,270C 96.2524,270.671 96.5858,271.504 96.5,272.5C 95.1184,271.199 93.4517,270.366 91.5,270C 86.8333,269.333 82.1667,269.333 77.5,270C 74.3515,270.738 71.6848,272.238 69.5,274.5C 67.847,272.039 65.847,269.872 63.5,268C 58.7959,267.352 54.1292,267.519 49.5,268.5C 53.7643,260.822 59.7643,254.656 67.5,250C 74.1836,249.61 80.8503,249.11 87.5,248.5 Z"/></g>
<g><path style="opacity:1" fill="#22dd94" d="M 87.5,248.5 C 89.1667,248.5 90.8333,248.5 92.5,248.5C 91.9162,255.666 94.7495,261 101,264.5C 102.667,267.833 104.333,271.167 106,274.5C 107.319,276.487 109.152,277.654 111.5,278C 107.269,278.919 103.269,278.419 99.5,276.5C 98.5116,275.205 97.5116,273.872 96.5,272.5C 96.5858,271.504 96.2524,270.671 95.5,270C 86.753,265.276 84.0864,258.109 87.5,248.5 Z"/></g>
<g><path style="opacity:1" fill="#2d0c89" d="M 545.5,243.5 C 546.249,247.054 547.082,250.72 548,254.5C 549.7,258.004 551.866,261.004 554.5,263.5C 551.548,264.654 548.548,265.654 545.5,266.5C 542.436,260.04 539.103,253.707 535.5,247.5C 539.049,246.726 542.382,245.393 545.5,243.5 Z"/></g>
<g><path style="opacity:1" fill="#269395" d="M 92.5,248.5 C 95.8333,248.5 99.1667,248.5 102.5,248.5C 105.902,248.342 109.236,248.676 112.5,249.5C 110.369,250.314 108.036,250.814 105.5,251C 108.424,251.988 111.424,252.654 114.5,253C 118.01,256.582 120.843,256.082 123,251.5C 128.152,253.483 131.318,257.15 132.5,262.5C 124.826,270.174 116.826,277.507 108.5,284.5C 104.436,282.978 101.436,280.311 99.5,276.5C 103.269,278.419 107.269,278.919 111.5,278C 109.152,277.654 107.319,276.487 106,274.5C 104.333,271.167 102.667,267.833 101,264.5C 94.7495,261 91.9162,255.666 92.5,248.5 Z"/></g>
<g><path style="opacity:1" fill="#220a89" d="M 635.5,260.5 C 636.833,261.167 637.833,262.167 638.5,263.5C 635.301,264.899 631.968,265.899 628.5,266.5C 628.628,264.91 629.295,263.577 630.5,262.5C 632.336,261.972 634.003,261.306 635.5,260.5 Z"/></g>
<g><path style="opacity:1" fill="#213698" d="M 521.5,247.5 C 521.817,250.726 521.984,254.059 522,257.5C 523.674,261.021 524.84,264.687 525.5,268.5C 519.04,269.097 512.874,268.43 507,266.5C 506.333,260.833 506.333,255.167 507,249.5C 507.75,248.874 508.584,248.374 509.5,248C 513.486,247.501 517.486,247.334 521.5,247.5 Z"/></g>
<g><path style="opacity:1" fill="#2c7a8d" d="M 612.5,267.5 C 606.69,268.49 600.69,268.823 594.5,268.5C 593.3,265.031 593.3,261.698 594.5,258.5C 597.375,267.205 602.542,269.205 610,264.5C 610.619,261.968 611.619,259.635 613,257.5C 613.543,260.868 613.376,264.201 612.5,267.5 Z"/></g>
<g><path style="opacity:1" fill="#15d1f7" d="M 69.5,274.5 C 72.021,276.872 71.8544,279.205 69,281.5C 68.1007,279.673 66.7674,278.34 65,277.5C 61.9122,278.254 61.7455,279.42 64.5,281C 64,281.167 63.5,281.333 63,281.5C 61.7416,279.642 60.0749,278.308 58,277.5C 56.175,277.943 54.3417,278.277 52.5,278.5C 53.9871,284.009 53.6538,289.342 51.5,294.5C 46.9452,289.046 44.2785,282.713 43.5,275.5C 45.2632,272.98 47.2632,270.647 49.5,268.5C 54.1292,267.519 58.7959,267.352 63.5,268C 65.847,269.872 67.847,272.039 69.5,274.5 Z"/></g>
<g><path style="opacity:1" fill="#13b8c6" d="M 75.5,291.5 C 77.0269,291.427 78.0269,292.094 78.5,293.5C 78.3619,299.662 77.3619,305.662 75.5,311.5C 69.5742,309.87 64.2409,307.204 59.5,303.5C 64.4755,299.013 69.8089,295.013 75.5,291.5 Z"/></g>
<g><path style="opacity:1" fill="#19b6ef" d="M 96.5,272.5 C 97.5116,273.872 98.5116,275.205 99.5,276.5C 101.436,280.311 104.436,282.978 108.5,284.5C 99.5754,293.318 90.5754,302.151 81.5,311C 79.5273,311.495 77.5273,311.662 75.5,311.5C 77.3619,305.662 78.3619,299.662 78.5,293.5C 81.1676,295.336 83.3343,297.669 85,300.5C 84.1794,295.949 83.5128,291.282 83,286.5C 80.4581,283.383 77.4581,280.717 74,278.5C 73.0577,283.091 73.5577,287.424 75.5,291.5C 69.8089,295.013 64.4755,299.013 59.5,303.5C 56.0969,301.1 53.4302,298.1 51.5,294.5C 53.6538,289.342 53.9871,284.009 52.5,278.5C 54.3417,278.277 56.175,277.943 58,277.5C 60.0749,278.308 61.7416,279.642 63,281.5C 63.5,281.333 64,281.167 64.5,281C 61.7455,279.42 61.9122,278.254 65,277.5C 66.7674,278.34 68.1007,279.673 69,281.5C 71.8544,279.205 72.021,276.872 69.5,274.5C 71.6848,272.238 74.3515,270.738 77.5,270C 82.1667,269.333 86.8333,269.333 91.5,270C 93.4517,270.366 95.1184,271.199 96.5,272.5 Z"/></g>
<g><path style="opacity:1" fill="#1783d7" d="M 78.5,293.5 C 78.0269,292.094 77.0269,291.427 75.5,291.5C 73.5577,287.424 73.0577,283.091 74,278.5C 77.4581,280.717 80.4581,283.383 83,286.5C 83.5128,291.282 84.1794,295.949 85,300.5C 83.3343,297.669 81.1676,295.336 78.5,293.5 Z"/></g>
</svg>
